 <svg  version="1.0" xmlns="http://www.w3.org/2000/svg"  width="300.000000pt" height="300.000000pt" viewBox="0 0 300.000000 300.000000"  preserveAspectRatio="xMidYMid meet">  <g transform="translate(0.000000,300.000000) scale(0.100000,-0.100000)" fill="#2b76ba" stroke="none"> <path d="M1224 2554 c13 -112 77 -182 176 -192 28 -2 50 -2 50 2 0 4 -8 19 -17 34 -36 58 -122 136 -107 97 4 -8 9 -15 13 -15 8 0 55 -80 50 -85 -12 -11 -72 30 -98 66 -33 45 -42 103 -17 112 21 8 80 -10 110 -34 27 -21 30 -39 4 -23 -7 5 -21 10 -31 11 -11 2 5 -19 41 -54 33 -32 62 -65 64 -73 3 -8 9 -12 13 -8 14 13 -16 114 -45 150 -34 41 -100 68 -168 68 l-45 0 7 -56z"/> <path d="M1550 2489 c-29 -41 -70 -136 -70 -164 0 -8 7 -15 15 -15 8 0 15 7 15 15 0 29 43 100 83 137 33 32 38 40 27 53 -20 24 -38 18 -70 -26z"/> <path d="M1250 2321 c-82 -25 -137 -79 -170 -168 -58 -154 21 -416 158 -520 60 -46 100 -51 184 -23 l69 22 63 -21 c77 -26 97 -26 145 -2 56 29 116 97 155 176 52 105 52 107 6 127 -29 12 -41 24 -46 45 -3 15 -16 36 -27 45 -48 38 -6 238 50 238 31 0 5 26 -62 62 -52 28 -152 30 -213 5 -54 -22 -93 -21 -162 3 -57 20 -107 24 -150 11z m193 -52 c38 -10 56 -10 95 1 79 21 189 24 218 6 24 -17 33 -51 14 -58 -6 -2 -16 -31 -22 -66 -6 -34 -15 -62 -20 -62 -4 0 -16 9 -26 21 -49 59 -133 85 -185 57 -104 -59 -127 -178 -49 -254 43 -41 66 -48 138 -41 50 5 57 3 87 -24 45 -42 76 -48 99 -19 26 32 23 44 -27 96 -42 43 -59 84 -34 84 14 0 48 -41 49 -58 0 -8 18 -30 40 -50 l39 -37 -29 -55 c-16 -30 -33 -62 -37 -70 -4 -8 -12 -20 -17 -26 -6 -6 -21 -23 -32 -36 -12 -14 -43 -34 -69 -44 -42 -15 -51 -16 -79 -4 -40 18 -158 19 -216 1 -41 -13 -50 -12 -82 3 -52 25 -99 73 -139 140 -31 54 -69 186 -69 242 0 56 12 76 29 47 9 -15 10 -13 11 13 1 107 88 200 178 192 30 -3 33 -5 17 -11 -96 -37 -146 -83 -172 -160 -17 -50 -9 -60 14 -17 23 42 112 140 128 140 6 0 21 9 34 21 18 17 20 23 9 36 -11 14 -9 15 22 10 19 -3 56 -11 83 -18z m219 -159 c38 -38 40 -43 35 -88 -2 -26 -8 -55 -12 -64 -5 -12 -3 -18 6 -18 8 0 34 -18 58 -40 42 -39 44 -42 27 -58 -17 -16 -20 -14 -67 36 -47 51 -50 53 -71 38 -29 -21 -102 -20 -134 0 -34 23 -54 65 -54 115 0 35 6 48 39 80 34 34 44 39 86 39 42 0 52 -5 87 -40z"/> <path d="M1507 2092 c-20 -21 -27 -38 -27 -68 0 -50 20 -79 65 -94 95 -31 167 89 96 161 -41 40 -96 41 -134 1z m118 -17 c14 -13 25 -36 25 -50 0 -34 -42 -75 -76 -75 -37 0 -74 36 -74 72 0 36 40 78 75 78 14 0 37 -11 50 -25z"/> <path d="M160 1405 c-17 -20 -5 -45 20 -45 11 0 23 7 26 15 6 15 -11 45 -26 45 -4 0 -13 -7 -20 -15z"/> <path d="M1271 1371 c3 -43 1 -50 -11 -45 -41 19 -82 16 -105 -6 -52 -49 -38 -134 26 -160 27 -12 36 -11 60 2 15 9 29 13 31 8 2 -4 12 -10 22 -12 18 -3 19 5 20 127 1 129 1 130 -23 133 -22 4 -23 1 -20 -47z m-13 -83 c17 -17 15 -64 -4 -82 -33 -34 -84 -8 -84 43 0 34 17 51 50 51 14 0 31 -5 38 -12z"/> <path d="M2610 1291 c0 -110 2 -131 15 -131 8 0 18 0 21 0 3 0 5 57 5 128 0 121 -1 127 -20 130 -20 3 -21 -1 -21 -127z"/> <path d="M260 1274 c0 -124 0 -125 22 -122 20 3 22 8 19 51 l-3 47 61 0 c57 0 61 2 61 23 0 21 -3 22 -60 19 l-60 -4 0 37 0 36 68 -2 c62 -2 67 -1 70 19 3 21 0 22 -87 22 l-91 0 0 -126z"/> <path d="M1450 1390 c0 -6 -23 -60 -52 -120 -28 -61 -49 -112 -47 -115 12 -11 50 10 55 31 6 22 11 24 69 24 61 0 63 -1 74 -30 7 -23 16 -30 35 -30 15 0 26 2 26 3 0 2 -25 57 -55 123 -47 102 -58 119 -80 122 -14 2 -25 -2 -25 -8z m52 -92 c10 -23 17 -42 15 -44 -8 -8 -76 -7 -75 1 3 21 31 85 37 85 3 0 14 -19 23 -42z"/> <path d="M1899 1281 c-31 -66 -54 -122 -51 -125 15 -15 41 -3 52 24 12 29 15 30 74 30 59 0 62 -1 73 -30 8 -20 18 -30 32 -30 12 0 21 3 21 7 0 4 -24 61 -52 125 -70 157 -75 156 -149 -1z m97 15 l21 -44 -44 -4 c-23 -2 -43 -1 -43 2 0 11 35 90 41 90 3 0 14 -20 25 -44z"/> <path d="M160 1245 c0 -88 1 -95 20 -95 19 0 20 7 20 95 0 88 -1 95 -20 95 -19 0 -20 -7 -20 -95z"/> <path d="M487 1320 c-68 -54 -25 -170 63 -170 58 0 109 61 96 116 -17 68 -103 98 -159 54z m101 -32 c17 -17 15 -64 -4 -82 -45 -45 -114 17 -79 70 17 26 62 33 83 12z"/> <path d="M690 1259 c4 -65 9 -83 24 -95 26 -19 55 -18 78 3 11 9 18 11 18 5 0 -7 11 -12 25 -12 25 0 25 1 25 90 0 89 0 90 -25 90 -24 0 -25 -2 -25 -65 0 -54 -3 -66 -20 -75 -14 -8 -26 -8 -40 0 -17 9 -20 21 -20 75 0 61 -1 65 -22 65 -22 0 -23 -2 -18 -81z"/> <path d="M910 1244 c0 -93 1 -95 23 -92 20 3 22 10 27 73 5 68 6 70 34 73 38 5 46 -10 46 -85 0 -56 2 -63 20 -63 18 0 20 7 20 78 0 64 -4 82 -18 95 -22 20 -72 22 -91 5 -11 -10 -14 -10 -18 0 -3 6 -13 12 -24 12 -17 0 -19 -8 -19 -96z"/> <path d="M1640 1246 c0 -89 1 -95 20 -93 17 1 20 8 20 55 0 64 13 92 43 92 37 0 47 -19 47 -87 0 -56 2 -63 20 -63 18 0 20 7 20 73 0 88 -16 117 -64 117 -17 0 -38 -6 -45 -12 -11 -10 -14 -10 -18 0 -3 6 -13 12 -24 12 -17 0 -19 -8 -19 -94z"/> <path d="M2135 1215 c0 -123 0 -125 23 -125 20 0 22 5 22 46 0 45 0 45 22 30 34 -24 66 -19 99 13 75 76 -9 200 -102 151 -13 -7 -19 -7 -19 0 0 5 -10 10 -22 10 -23 0 -23 -2 -23 -125z m142 59 c15 -24 15 -29 2 -53 -38 -68 -125 -9 -89 60 16 29 65 25 87 -7z"/> <path d="M2370 1215 l0 -125 26 0 c26 0 26 2 22 45 -6 47 1 56 22 30 16 -19 43 -19 79 0 57 29 65 115 14 155 -29 22 -82 26 -102 8 -11 -10 -14 -10 -18 0 -3 6 -13 12 -24 12 -18 0 -19 -8 -19 -125z m138 73 c7 -7 12 -27 12 -45 0 -26 -6 -36 -25 -45 -40 -18 -75 3 -75 45 0 40 15 57 50 57 14 0 31 -5 38 -12z"/> <path d="M2737 1329 c-11 -6 -25 -27 -33 -46 -36 -84 46 -160 131 -121 14 6 25 17 25 24 0 15 -27 26 -35 14 -9 -14 -59 -12 -73 2 -23 23 -12 28 59 28 l71 0 -7 33 c-13 62 -85 97 -138 66z m74 -29 c36 -20 23 -40 -26 -40 -48 0 -62 19 -27 39 22 13 29 13 53 1z"/> </g> </svg> 